<?xml version="1.0" encoding="utf-8"?>
<!-- Generator: Adobe Illustrator 27.2.0, SVG Export Plug-In . SVG Version: 6.00 Build 0)  -->
<svg version="1.1" id="Layer_2_00000091715495084103044350000002204333950753297562_"
	 xmlns="http://www.w3.org/2000/svg" xmlns:xlink="http://www.w3.org/1999/xlink" x="0px" y="0px" viewBox="0 0 40 40"
	 style="enable-background:new 0 0 40 40;" xml:space="preserve">
<style type="text/css">
	.st0{fill:#7F7F7F;}
</style>
<path class="st0" d="M29.1,18.7v2.8c0,0.6-0.4,1-1,1H11.7c-0.6,0-1-0.4-1-1v-2.8c0-0.6,0.4-1,1-1H28C28.6,17.7,29.1,18.2,29.1,18.7z
	"/>
<path class="st0" d="M21.3,29.3h-2.8c-0.6,0-1-0.4-1-1V12c0-0.6,0.4-1,1-1h2.8c0.6,0,1,0.4,1,1v16.3C22.3,28.8,21.9,29.3,21.3,29.3z
	"/>
</svg>
