<?xml version="1.0" encoding="UTF-8"?>
<svg id="Layer_2" data-name="Layer 2" xmlns="http://www.w3.org/2000/svg" viewBox="0 0 800 840.49">
  <defs>
    <style>
      .cls-1 {
        fill: #d5d6d7;
      }
    </style>
  </defs>
  <g id="Layer_1-2" data-name="Layer 1">
    <g>
      <path class="cls-1" d="m655.57,840.49H144.43C64.79,840.49,0,775.7,0,696.06V184.93C0,105.29,64.79,40.49,144.43,40.49h511.14c79.64,0,144.43,64.79,144.43,144.43v511.14c0,79.64-64.79,144.43-144.43,144.43ZM144.43,92.39c-51.03,0-92.54,41.51-92.54,92.54v511.14c0,51.03,41.51,92.54,92.54,92.54h511.14c51.03,0,92.54-41.51,92.54-92.54V184.93c0-51.03-41.51-92.54-92.54-92.54H144.43Z"/>
      <path class="cls-1" d="m752.61,260.91H25.95c-14.33,0-25.95-11.62-25.95-25.95s11.62-25.95,25.95-25.95h726.66c14.33,0,25.95,11.62,25.95,25.95s-11.62,25.95-25.95,25.95Z"/>
      <g>
        <path class="cls-1" d="m165.05,132.28c-14.33,0-25.95-11.62-25.95-25.95V25.95c0-14.33,11.62-25.95,25.95-25.95s25.95,11.62,25.95,25.95v80.38c0,14.33-11.62,25.95-25.95,25.95Z"/>
        <path class="cls-1" d="m290.7,132.28c-14.33,0-25.95-11.62-25.95-25.95V25.95c0-14.33,11.62-25.95,25.95-25.95s25.95,11.62,25.95,25.95v80.38c0,14.33-11.62,25.95-25.95,25.95Z"/>
        <path class="cls-1" d="m416.35,132.28c-14.33,0-25.95-11.62-25.95-25.95V25.95c0-14.33,11.62-25.95,25.95-25.95s25.95,11.62,25.95,25.95v80.38c0,14.33-11.62,25.95-25.95,25.95Z"/>
        <path class="cls-1" d="m542,132.28c-14.33,0-25.95-11.62-25.95-25.95V25.95c0-14.33,11.62-25.95,25.95-25.95s25.95,11.62,25.95,25.95v80.38c0,14.33-11.62,25.95-25.95,25.95Z"/>
        <path class="cls-1" d="m667.65,132.28c-14.33,0-25.95-11.62-25.95-25.95V25.95c0-14.33,11.62-25.95,25.95-25.95s25.95,11.62,25.95,25.95v80.38c0,14.33-11.62,25.95-25.95,25.95Z"/>
      </g>
      <g>
        <g>
          <rect class="cls-1" x="195.4" y="348.05" width="72.8" height="72.8"/>
          <rect class="cls-1" x="363.6" y="348.05" width="72.8" height="72.8"/>
          <rect class="cls-1" x="531.8" y="348.05" width="72.8" height="72.8"/>
        </g>
        <g>
          <rect class="cls-1" x="195.4" y="494.96" width="72.8" height="72.8"/>
          <rect class="cls-1" x="363.6" y="494.96" width="72.8" height="72.8"/>
          <rect class="cls-1" x="531.8" y="494.96" width="72.8" height="72.8"/>
        </g>
        <g>
          <rect class="cls-1" x="195.4" y="641.88" width="72.8" height="72.8"/>
          <rect class="cls-1" x="363.6" y="641.88" width="72.8" height="72.8"/>
          <rect class="cls-1" x="531.8" y="641.88" width="72.8" height="72.8"/>
        </g>
      </g>
    </g>
  </g>
</svg>