<?xml version="1.0" encoding="utf-8"?>
<!-- Generator: Adobe Illustrator 27.2.0, SVG Export Plug-In . SVG Version: 6.00 Build 0)  -->
<svg version="1.1" id="Layer_1" xmlns="http://www.w3.org/2000/svg" xmlns:xlink="http://www.w3.org/1999/xlink" x="0px" y="0px"
	 viewBox="0 0 800 800" style="enable-background:new 0 0 800 800;" xml:space="preserve">
<style type="text/css">
	.st0{fill:#D5D6D7;}
</style>
<g>
	<g>
		<path class="st0" d="M400,0C179.4,0,0,179.4,0,400s179.4,400,400,400s400-179.4,400-400S620.6,0,400,0z M672,542.6
			c-6-3.4-13.6-1.4-17.1,4.6c-3.5,6-1.4,13.6,4.6,17.1l20.7,11.9c-26.5,41.9-62.1,77.5-104,104l-12-20.7c-3.4-6-11.1-8-17.1-4.6
			c-6,3.5-8,11.1-4.6,17.1l12,20.8c-42.7,22.6-92.1,36.2-142.1,38.1v-68.2c0-6.9-5.6-12.5-12.5-12.5c-6.9,0-12.5,5.6-12.5,12.5v68.2
			c-50-1.9-99.4-15.5-142.1-38.1l12-20.8c3.4-6,1.4-13.6-4.6-17.1c-6-3.5-13.6-1.4-17.1,4.6l-12,20.7c-41.9-26.5-77.5-62.1-104-104
			l20.7-12c6-3.4,8-11.1,4.6-17.1c-3.4-6-11.1-8-17.1-4.6l-20.8,12c-22.6-42.7-36.2-92.1-38.1-142.1h68.2c6.9,0,12.5-5.6,12.5-12.5
			c0-6.9-5.6-12.5-12.5-12.5H69.2c1.9-50,15.5-99.4,38.1-142.1l20.8,12c2,1.1,4.1,1.7,6.2,1.7c4.3,0,8.5-2.2,10.8-6.3
			c3.4-6,1.4-13.6-4.6-17.1l-20.7-12c26.5-41.9,62.1-77.5,104-104l12,20.7c2.3,4,6.5,6.2,10.8,6.2c2.1,0,4.3-0.5,6.2-1.7
			c6-3.5,8-11.1,4.6-17.1l-12-20.8c42.7-22.6,92.1-36.2,142.1-38.1v68.2c0,6.9,5.6,12.5,12.5,12.5c6.9,0,12.5-5.6,12.5-12.5V69.2
			c50,1.9,99.4,15.5,142.1,38.1l-12,20.8c-3.5,6-1.4,13.6,4.6,17.1c2,1.1,4.1,1.7,6.2,1.7c4.3,0,8.5-2.2,10.8-6.3l12-20.7
			c41.9,26.5,77.5,62.1,104,104l-20.7,12c-6,3.4-8,11.1-4.6,17.1c2.3,4,6.5,6.3,10.8,6.3c2.1,0,4.3-0.5,6.2-1.7l20.8-12
			c22.6,42.7,36.2,92.1,38.1,142.1h-68.2c-6.9,0-12.5,5.6-12.5,12.5s5.6,12.5,12.5,12.5h68.2c-1.9,50-15.5,99.4-38.1,142.1
			L672,542.6z"/>
	</g>
</g>
<g>
	<g>
		<path class="st0" d="M618.6,381.2H432.2c-3.3-6.3-7.2-10.2-13.4-13.4V181.4c0-10.3-8.5-18.6-18.8-18.6s-18.8,8.4-18.8,18.6v186.5
			c-12.5,6.5-18.5,18.4-18.5,32.2c0,20.5,16.7,37.3,37.2,37.3c13.7,0,25.7-6,32.2-18.5h186.5c10.3,0,18.6-8.5,18.6-18.8
			C637.3,389.7,628.9,381.2,618.6,381.2z"/>
	</g>
</g>
</svg>
