<?xml version="1.0" encoding="UTF-8"?>
<svg id="Layer_2" data-name="Layer 2" xmlns="http://www.w3.org/2000/svg" viewBox="0 0 40 40">
  <defs>
    <style>
      .cls-1 {
        fill: #7f7f7f;
      }
    </style>
  </defs>
  <g id="Layer_2-2" data-name="Layer 2">
    <g id="Layer_1-2" data-name="Layer 1-2">
      <path class="cls-1" d="m17.78,2.22H5.56c-1.78,0-3.33,1.56-3.33,3.33v28.89c0,1.78,1.56,3.33,3.33,3.33h12.22V2.22Zm2.22,0v35.56h14.44c1.78,0,3.33-1.56,3.33-3.33V5.56c0-1.78-1.56-3.33-3.33-3.33h-14.44ZM0,5.56C0,2.44,2.44,0,5.56,0h28.89c3.11,0,5.56,2.44,5.56,5.56v28.89c0,3.11-2.44,5.56-5.56,5.56H5.56c-3.11,0-5.56-2.44-5.56-5.56V5.56Zm5.56,3.33c-.67,0-1.11-.44-1.11-1.11s.44-1.11,1.11-1.11h8.89c.67,0,1.11.44,1.11,1.11s-.44,1.11-1.11,1.11H5.56Zm0,4.44c-.67,0-1.11-.44-1.11-1.11s.44-1.11,1.11-1.11h6.67c.67,0,1.11.44,1.11,1.11s-.44,1.11-1.11,1.11h-6.67Zm0,4.44c-.67,0-1.11-.44-1.11-1.11s.44-1.11,1.11-1.11h8.89c.67,0,1.11.44,1.11,1.11s-.44,1.11-1.11,1.11H5.56Zm0,4.44c-.67,0-1.11-.44-1.11-1.11s.44-1.11,1.11-1.11h6.67c.67,0,1.11.44,1.11,1.11s-.44,1.11-1.11,1.11h-6.67Z"/>
    </g>
  </g>
</svg>